<svg width="17" height="17" viewBox="0 0 17 17" fill="none" xmlns="http://www.w3.org/2000/svg">
<path d="M2.65685 13.9706C5.78181 17.0955 10.8456 17.0955 13.9706 13.9706C17.0955 10.8456 17.0955 5.7818 13.9706 2.65685C10.8456 -0.468107 5.78181 -0.468107 2.65685 2.65685C-0.468104 5.7818 -0.468104 10.8456 2.65685 13.9706ZM5.66776 4.3904C5.8183 4.23986 6.06465 4.23986 6.2152 4.3904L8.31371 6.48891L10.4122 4.3904C10.5628 4.23986 10.8091 4.23986 10.9597 4.3904L12.237 5.66776C12.3876 5.8183 12.3876 6.06465 12.237 6.21519L10.1385 8.3137L12.237 10.4122C12.3876 10.5628 12.3876 10.8091 12.237 10.9597L10.9597 12.237C10.8091 12.3876 10.5628 12.3876 10.4122 12.237L8.31371 10.1385L6.2152 12.237C6.06465 12.3876 5.8183 12.3876 5.66776 12.237L4.3904 10.9597C4.23986 10.8091 4.23986 10.5628 4.3904 10.4122L6.48891 8.3137L4.3904 6.21519C4.23986 6.06465 4.23986 5.8183 4.3904 5.66776L5.66776 4.3904Z" fill="black"/>
</svg>
